<svg version="1.1" viewBox="0.0 0.0 217.3753280839895 201.78215223097112" fill="none" stroke="none" stroke-linecap="square" stroke-miterlimit="10" xmlns:xlink="http://www.w3.org/1999/xlink" xmlns="http://www.w3.org/2000/svg"><clipPath id="p.0"><path d="m0 0l217.37534 0l0 201.78215l-217.37534 0l0 -201.78215z" clip-rule="nonzero"/></clipPath><g clip-path="url(#p.0)"><path fill="#000000" fill-opacity="0.0" d="m0 0l217.37534 0l0 201.78215l-217.37534 0z" fill-rule="evenodd"/><path fill="#85200c" d="m21.213495 -0.001972966l21.479967 0l0 0c5.696842 0 11.160358 2.2630615 15.188633 6.2913375c4.0282745 4.028275 6.291336 9.491789 6.291336 15.188631l0 152.85725l-42.959938 0z" fill-rule="evenodd"/><path fill="#b45f06" d="m13.8528805 27.84623l168.53465 0c3.6744843 0 7.198456 1.4596786 9.796692 4.0579224c2.5982513 2.5982437 4.0579224 6.122219 4.0579224 9.796692l0 13.854614c0 9.0408325E-4 -7.324219E-4 0.0016365051 -0.0016326904 0.0016365051l-196.24225 -0.0016365051l0 0c-9.0318755E-4 0 -0.0016353657 -7.324219E-4 -0.0016353657 -0.0016365051l0.0016353657 -13.852978l0 0c0 -7.6516914 6.2029223 -13.854614 13.854614 -13.854614z" fill-rule="evenodd"/><path fill="#134f5c" d="m136.26068 27.84623l21.47998 0l0 0c5.6968384 0 11.160355 2.2630615 15.188629 6.291336c4.0282745 4.0282745 6.291336 9.491791 6.291336 15.188633l0 152.85725l-42.959946 0z" fill-rule="evenodd"/><path fill="#741b47" d="m21.213495 73.31203l196.24388 0c4.272461E-4 0 8.392334E-4 1.7547607E-4 0.0011444092 4.8065186E-4c3.0517578E-4 3.0517578E-4 4.8828125E-4 7.247925E-4 4.8828125E-4 0.0011520386l-0.0016326904 13.852982l0 0c0 7.6516953 -6.2029266 13.854614 -13.854614 13.854614l-168.53467 0c-7.6516895 0 -13.854612 -6.202919 -13.854612 -13.854614l0 -13.854614l0 0c0 -9.0026855E-4 7.324219E-4 -0.0016326904 0.0016345978 -0.0016326904z" fill-rule="evenodd"/></g></svg>