<svg version="1.1" viewBox="0.0 0.0 457.68241469816275 168.3779527559055" fill="none" stroke="none" stroke-linecap="square" stroke-miterlimit="10" xmlns:xlink="http://www.w3.org/1999/xlink" xmlns="http://www.w3.org/2000/svg"><clipPath id="p.0"><path d="m0 0l457.6824 0l0 168.37796l-457.6824 0l0 -168.37796z" clip-rule="nonzero"/></clipPath><g clip-path="url(#p.0)"><path fill="#000000" fill-opacity="0.0" d="m0 0l457.6824 0l0 168.37796l-457.6824 0z" fill-rule="evenodd"/><path fill="#000000" fill-opacity="0.0" d="m186.59842 22.370079l528.31494 0l0 61.637794l-528.31494 0z" fill-rule="evenodd"/><path fill="#4a86e8" d="m222.47342 122.09508q-10.640625 0 -17.265625 -6.71875q-6.625 -6.71875 -6.625 -16.984375q0 -10.1875 6.625 -16.90625q6.625 -6.71875 17.265625 -6.71875q6.90625 0 11.25 2.53125q4.34375 2.515625 6.578125 5.59375l-7.75 7.28125q-3.265625 -4.859375 -9.515625 -4.859375q-5.40625 0 -8.8125 3.59375q-3.40625 3.59375 -3.40625 9.484375q0 5.875 3.40625 9.515625q3.40625 3.640625 8.8125 3.640625q6.0625 0 9.515625 -4.859375l7.75 7.1875q-2.234375 3.171875 -6.578125 5.703125q-4.34375 2.515625 -11.25 2.515625zm46.5708 0q-10.640625 0 -17.26564 -6.71875q-6.625 -6.71875 -6.625 -16.984375q0 -10.1875 6.625 -16.90625q6.6250153 -6.71875 17.26564 -6.71875q6.90625 0 11.25 2.53125q4.34375 2.515625 6.578125 5.59375l-7.75 7.28125q-3.265625 -4.859375 -9.515625 -4.859375q-5.40625 0 -8.8125 3.59375q-3.40625 3.59375 -3.40625 9.484375q0 5.875 3.40625 9.515625q3.40625 3.640625 8.8125 3.640625q6.0625 0 9.515625 -4.859375l7.75 7.1875q-2.234375 3.171875 -6.578125 5.703125q-4.34375 2.515625 -11.25 2.515625zm46.75827 0q-10.640625 0 -17.359375 -6.578125q-6.71875 -6.59375 -6.71875 -17.125q0 -10.09375 6.671875 -16.859375q6.671875 -6.765625 16.65625 -6.765625q9.984375 0 16.28125 6.859375q6.3125 6.859375 6.3125 17.96875l0 2.609375l-33.5 0q0.546875 4.296875 3.859375 7.375q3.3125 3.078125 9.109375 3.078125q2.796875 0 6.25 -1.15625q3.453125 -1.171875 5.78125 -3.3125l5.234375 7.640625q-3.359375 3.09375 -8.3125 4.6875q-4.9375 1.578125 -10.265625 1.578125zm10.359375 -27.90625q-0.28125 -4.484375 -3.359375 -7.234375q-3.078125 -2.75 -7.75 -2.75q-4.65625 0 -7.65625 2.84375q-2.984375 2.84375 -3.4375 7.140625l22.203125 0zm36.31366 27.90625q-5.890625 0 -11.265625 -1.859375q-5.359375 -1.875 -8.90625 -5.140625l5.140625 -8.3125q2.703125 2.515625 7.1875 4.34375q4.484375 1.8125 8.390625 1.8125q7.5625 0 7.5625 -4.84375q0 -1.875 -2.015625 -2.796875q-2.0 -0.9375 -4.890625 -1.59375l-6.4375 -1.3125q-13.4375 -2.890625 -13.4375 -13.4375q0 -6.25 5.171875 -10.21875q5.1875 -3.96875 13.3125 -3.96875q10.546875 0 18.1875 6.171875l-4.75 8.109375q-2.0625 -2.140625 -5.609375 -3.671875q-3.546875 -1.546875 -7.734375 -1.546875q-3.265625 0 -5.1875 1.3125q-1.90625 1.296875 -1.90625 3.15625q0 1.6875 1.953125 2.53125q1.96875 0.828125 4.953125 1.4375q2.984375 0.609375 6.4375 1.40625q3.453125 0.796875 6.4375 2.390625q2.984375 1.578125 4.9375 4.28125q1.96875 2.703125 1.96875 7.28125q0 6.53125 -5.328125 10.5q-5.3125 3.96875 -14.171875 3.96875zm44.517548 0q-5.890625 0 -11.265625 -1.859375q-5.359375 -1.875 -8.90625 -5.140625l5.140625 -8.3125q2.703125 2.515625 7.1875 4.34375q4.484375 1.8125 8.390625 1.8125q7.5625 0 7.5625 -4.84375q0 -1.875 -2.015625 -2.796875q-2.0 -0.9375 -4.890625 -1.59375l-6.4375 -1.3125q-13.4375 -2.890625 -13.4375 -13.4375q0 -6.25 5.171875 -10.21875q5.1875 -3.96875 13.3125 -3.96875q10.546875 0 18.1875 6.171875l-4.75 8.109375q-2.0625 -2.140625 -5.609375 -3.671875q-3.546875 -1.546875 -7.734375 -1.546875q-3.265625 0 -5.1875 1.3125q-1.90625 1.296875 -1.90625 3.15625q0 1.6875 1.953125 2.53125q1.96875 0.828125 4.953125 1.4375q2.984375 0.609375 6.4375 1.40625q3.453125 0.796875 6.4375 2.390625q2.984375 1.578125 4.9375 4.28125q1.96875 2.703125 1.96875 7.28125q0 6.53125 -5.328125 10.5q-5.3125 3.96875 -14.171875 3.96875z" fill-rule="nonzero"/><path fill="#ff0000" d="m67.51979 6.226785l14.015747 6.8346457l-64.47244 131.81102l-14.015747 -6.8346405z" fill-rule="evenodd"/><path stroke="#ff0000" stroke-width="1.0" stroke-linejoin="round" stroke-linecap="butt" d="m67.51979 6.226785l14.015747 6.8346457l-64.47244 131.81102l-14.015747 -6.8346405z" fill-rule="evenodd"/><path fill="#ff0000" d="m69.09597 14.635824l13.700783 -7.4015746l69.51181 129.22835l-13.70079 7.4015656z" fill-rule="evenodd"/><path stroke="#ff0000" stroke-width="1.0" stroke-linejoin="round" stroke-linecap="butt" d="m69.09597 14.635824l13.700783 -7.4015746l69.51181 129.22835l-13.70079 7.4015656z" fill-rule="evenodd"/><path fill="#ff0000" d="m64.51181 14.291339l0 0c0 -6.488259 4.780327 -11.748032 10.67717 -11.748032l0 0c2.8317566 0 5.5475388 1.2377355 7.5498886 3.4409187c2.0023575 2.2031837 3.1272736 5.191341 3.1272736 8.307114l0 0c0 6.4882574 -4.780327 11.748031 -10.677162 11.748031l0 0c-5.896843 0 -10.67717 -5.2597733 -10.67717 -11.748031z" fill-rule="evenodd"/><path fill="#ff0000" d="m112.880745 14.635824l13.70079 -7.4015746l69.5118 129.22835l-13.700775 7.4015656z" fill-rule="evenodd"/><path stroke="#ff0000" stroke-width="1.0" stroke-linejoin="round" stroke-linecap="butt" d="m112.880745 14.635824l13.70079 -7.4015746l69.5118 129.22835l-13.700775 7.4015656z" fill-rule="evenodd"/></g></svg>
